# xmcd
#
# Track frame offsets:
#	150
#	21550
#	43160
#	64850
#	85730
#	109217
#	135365
#	160652
#	186332
#	205992
#	227880
#	251565
#	272557
#
# Disc length: 3990 seconds
#
# Revision: 1
# Processed by: cddbd v1.5.1PL2 Copyright (c) Steve Scherf et al.
# Submitted via: audiograbber 1.83.01
#
DISCID=b70f940d
DTITLE=Martin Schmitt - Handful Of Blues
DYEAR=1993
DGENRE=Blues
TTITLE0=The Cat
TTITLE1=Let`s Go Get Stoned
TTITLE2=324 Blues
TTITLE3=Experience
TTITLE4=All I Wanna Ever Do
TTITLE5=Come Rain Or Come Shine
TTITLE6=Big Legged Mommas
TTITLE7=Lonely Hours
TTITLE8=Keep Your Hands Off Her
TTITLE9=Doodlin`
TTITLE10=Too Fat To Boogie
TTITLE11=She`s Not The One For Me
TTITLE12=Ain`t Nobodys Business
EXTD=
EXTT0=(J.Smith)
EXTT1=(V.Simpson/N.Ashford/J.Armstead)
EXTT2=(Martin Schmitt)
EXTT3=(Martin Schmitt)
EXTT4=(Martin Schmitt)
EXTT5=(H.Arlen/J.Mercer)
EXTT6=(T.Mahal)
EXTT7=(Martin Schmitt)
EXTT8=(H.Ledbetter)
EXTT9=(H.Silver)
EXTT10=(Martin Schmitt/M.Donegan)
EXTT11=(Martin Schmitt)
EXTT12=(Grainger/Robbins/Prince/Williams)
PLAYORDER=
